<?xml version="1.0" standalone="no"?>
<!DOCTYPE svg PUBLIC "-//W3C//DTD SVG 20010904//EN"
 "http://www.w3.org/TR/2001/REC-SVG-20010904/DTD/svg10.dtd">
<svg version="1.0" xmlns="http://www.w3.org/2000/svg"
 width="600.000000pt" height="600.000000pt" viewBox="0 0 600.000000 600.000000"
 preserveAspectRatio="xMidYMid meet">
<metadata>
Created by potrace 1.11, written by Peter Selinger 2001-2013
</metadata>
<g transform="translate(0.000000,600.000000) scale(0.100000,-0.100000)"
fill="#000000" stroke="none">
<path d="M2112 5219 c-599 -58 -1074 -370 -1350 -889 -93 -174 -167 -393 -204
-600 -19 -111 -17 -396 4 -491 67 -300 244 -509 515 -608 136 -50 237 -65 428
-65 136 0 190 5 272 22 246 53 453 161 636 332 477 447 617 1162 321 1638 -53
85 -143 185 -205 228 l-42 29 429 5 430 5 75 37 c83 41 152 102 244 217 l59
73 -21 37 -21 36 -743 1 c-409 1 -781 -2 -827 -7z m148 -474 c120 -163 180
-288 212 -445 17 -81 19 -120 15 -260 -9 -252 -58 -458 -163 -679 -148 -313
-356 -516 -589 -576 -78 -20 -242 -20 -320 0 -167 43 -289 144 -369 305 -200
404 -45 1066 333 1422 200 189 479 300 771 307 l55 1 55 -75z"/>
<path d="M3855 4138 c-50 -18 -87 -21 -222 -22 l-163 -1 0 -77 c0 -170 -24
-293 -229 -1189 -82 -361 -159 -710 -170 -776 -12 -66 -39 -182 -62 -259 -23
-76 -68 -256 -100 -399 -129 -562 -204 -827 -281 -978 l-41 -82 18 -53 c10
-29 23 -51 29 -48 6 2 111 43 232 91 l222 87 40 122 c74 221 109 375 167 741
37 235 54 325 60 325 2 0 19 -9 37 -20 135 -79 421 -56 653 54 135 64 280 164
392 270 24 22 44 38 47 35 2 -2 0 -33 -5 -68 -32 -230 104 -370 323 -333 175
30 347 162 498 383 l39 56 -44 36 c-24 21 -47 37 -52 37 -4 -1 -30 -33 -58
-72 -160 -226 -303 -236 -280 -20 4 37 20 130 35 207 54 266 339 1471 408
1723 38 138 66 252 63 252 -3 0 -35 -10 -71 -22 -54 -18 -92 -22 -225 -24
l-160 -2 -8 -79 c-11 -114 -67 -375 -246 -1153 l-159 -695 -68 -63 c-88 -82
-240 -183 -343 -228 -126 -54 -221 -76 -341 -78 -90 -1 -111 2 -145 21 -52 28
-79 57 -107 118 -21 45 -23 64 -23 195 1 81 6 172 14 205 38 176 402 1782 406
1793 6 16 -8 14 -80 -10z"/>
</g>
</svg>
