<?xml version="1.0" standalone="no"?>
<!DOCTYPE svg PUBLIC "-//W3C//DTD SVG 20010904//EN"
 "http://www.w3.org/TR/2001/REC-SVG-20010904/DTD/svg10.dtd">
<svg version="1.0" xmlns="http://www.w3.org/2000/svg"
 width="600.000000pt" height="600.000000pt" viewBox="0 0 600.000000 600.000000"
 preserveAspectRatio="xMidYMid meet">
<metadata>
Created by potrace 1.11, written by Peter Selinger 2001-2013
</metadata>
<g transform="translate(0.000000,600.000000) scale(0.100000,-0.100000)"
fill="#000000" stroke="none">
<path d="M2149 5226 c-2 -2 -35 -6 -74 -10 -183 -17 -397 -78 -570 -161 -93
-45 -258 -143 -275 -164 -3 -3 -27 -24 -55 -46 -378 -302 -628 -841 -636
-1371 -3 -216 70 -451 185 -596 120 -150 316 -260 536 -299 82 -14 341 -18
433 -7 271 35 556 179 756 382 70 70 159 179 198 242 132 208 211 430 239 669
5 46 5 217 -1 245 -3 14 -7 48 -11 75 -8 75 -61 231 -107 315 -63 118 -148
218 -251 298 l-29 22 405 0 c512 0 529 3 670 142 69 68 158 180 158 198 0 6
-10 24 -22 41 l-22 29 -762 0 c-419 -1 -763 -2 -765 -4z m102 -469 c113 -150
191 -306 213 -418 2 -13 7 -35 10 -49 15 -63 22 -266 12 -340 -2 -14 -7 -49
-10 -78 -3 -30 -13 -84 -22 -120 -8 -37 -18 -77 -20 -90 -3 -13 -12 -44 -21
-70 -8 -26 -17 -51 -18 -57 -1 -5 -6 -19 -10 -30 -5 -11 -16 -41 -26 -67 -90
-233 -278 -476 -445 -574 -64 -38 -184 -89 -184 -79 0 2 -12 0 -26 -6 -35 -13
-196 -13 -259 0 -209 41 -355 175 -434 393 -20 57 -31 98 -37 138 -26 191 -22
310 17 480 5 25 9 47 9 50 -6 30 150 400 171 408 5 2 9 8 9 14 0 6 23 41 50
79 146 200 327 336 550 412 41 14 89 28 105 31 17 3 41 8 55 11 14 3 52 8 85
12 33 3 61 6 62 7 1 1 28 2 60 3 l58 2 46 -62z"/>
<path d="M3905 4154 c-71 -29 -190 -45 -310 -42 l-119 3 -2 -55 c-4 -96 -15
-191 -35 -310 -17 -96 -32 -167 -84 -400 -2 -8 -13 -55 -24 -105 -27 -116 -71
-313 -77 -344 -3 -14 -7 -28 -9 -31 -2 -4 -7 -21 -10 -38 -3 -18 -21 -99 -40
-181 -19 -82 -36 -160 -39 -172 -2 -13 -11 -51 -20 -84 -20 -79 -54 -241 -60
-285 -11 -85 -20 -124 -62 -275 -53 -189 -52 -184 -119 -475 -2 -8 -9 -37 -15
-65 -6 -27 -13 -57 -15 -65 -37 -172 -147 -588 -164 -615 -3 -5 -6 -12 -6 -15
-2 -19 -33 -93 -67 -163 l-40 -82 18 -53 c9 -29 22 -51 28 -48 6 2 72 27 146
56 74 28 154 60 177 71 23 10 60 24 82 31 22 7 45 22 51 33 50 97 148 476 185
720 12 72 16 99 25 155 5 30 12 75 15 100 4 25 13 77 21 115 8 39 14 73 14 78
0 4 17 -1 38 -12 77 -39 159 -54 272 -47 260 14 522 136 764 355 31 28 58 51
61 51 2 0 2 -10 -1 -22 -11 -53 -11 -154 2 -200 18 -70 56 -122 111 -155 43
-25 57 -28 138 -28 74 0 103 5 162 28 125 49 237 139 347 282 105 135 102 126
51 169 -24 20 -47 36 -52 36 -4 0 -19 -17 -33 -38 -14 -20 -29 -42 -35 -49 -5
-6 -20 -25 -33 -41 -35 -46 -74 -82 -106 -99 -35 -18 -92 -21 -107 -6 -25 25
-32 127 -14 213 3 14 8 41 11 60 3 19 12 63 20 98 7 34 16 77 19 95 3 17 13
58 21 90 8 32 19 77 24 100 4 23 11 51 13 62 19 78 79 334 83 350 2 11 22 99
45 195 23 96 45 194 50 218 7 34 37 159 95 395 2 9 6 26 8 37 3 11 7 24 10 28
3 5 7 19 10 33 4 24 83 313 91 338 4 10 -1 11 -22 6 -147 -41 -160 -43 -299
-42 -89 2 -141 -1 -141 -8 -3 -64 -35 -271 -58 -375 -3 -14 -8 -36 -11 -50 -2
-14 -14 -62 -25 -106 -11 -45 -21 -90 -24 -100 -2 -11 -9 -41 -15 -69 -6 -27
-14 -61 -16 -75 -3 -14 -12 -52 -21 -85 -8 -33 -17 -71 -19 -84 -3 -12 -12
-53 -20 -90 -9 -36 -18 -77 -20 -91 -3 -14 -7 -33 -10 -42 -3 -9 -7 -25 -9
-35 -2 -10 -18 -79 -35 -153 -17 -74 -34 -146 -36 -160 -3 -14 -13 -59 -24
-100 -10 -41 -29 -124 -42 -185 l-23 -110 -66 -65 c-138 -137 -352 -256 -529
-296 -19 -4 -42 -9 -50 -11 -8 -2 -53 -6 -100 -8 -155 -7 -235 45 -274 178
-16 52 -17 261 -2 332 4 17 13 62 22 100 9 39 18 81 20 95 3 14 12 54 20 90 9
36 17 74 20 85 2 11 17 79 34 150 17 72 35 150 40 175 5 25 23 105 39 179 17
73 33 143 35 155 3 11 28 122 56 246 29 124 54 234 56 245 2 11 19 87 38 170
19 82 34 150 33 151 -1 1 -16 -5 -32 -12z"/>
</g>
</svg>
